<mxfile host="app.diagrams.net" agent="Mozilla/5.0 (Windows NT 10.0; Win64; x64) AppleWebKit/537.36 (KHTML, like Gecko) Chrome/126.0.0.0 Safari/537.36" version="24.7.6">
  <diagram name="第 1 页" id="GyjuWLHJGFw596Ka0NUz">
    <mxGraphModel dx="2117" dy="530" grid="1" gridSize="10" guides="1" tooltips="1" connect="1" arrows="1" fold="1" page="1" pageScale="1" pageWidth="827" pageHeight="1169" math="0" shadow="0">
      <root>
        <mxCell id="0" />
        <mxCell id="1" parent="0" />
        <mxCell id="se57fAL17HWaH3ht4lCD-3" value="" style="whiteSpace=wrap;html=1;aspect=fixed;" vertex="1" parent="1">
          <mxGeometry x="170" y="40" width="300" height="300" as="geometry" />
        </mxCell>
        <mxCell id="se57fAL17HWaH3ht4lCD-7" style="edgeStyle=orthogonalEdgeStyle;rounded=0;orthogonalLoop=1;jettySize=auto;html=1;exitX=0.5;exitY=1;exitDx=0;exitDy=0;entryX=0.5;entryY=0;entryDx=0;entryDy=0;" edge="1" parent="1" source="se57fAL17HWaH3ht4lCD-1" target="se57fAL17HWaH3ht4lCD-4">
          <mxGeometry relative="1" as="geometry" />
        </mxCell>
        <mxCell id="se57fAL17HWaH3ht4lCD-26" style="edgeStyle=orthogonalEdgeStyle;rounded=0;orthogonalLoop=1;jettySize=auto;html=1;exitX=1;exitY=0.5;exitDx=0;exitDy=0;entryX=0;entryY=0.5;entryDx=0;entryDy=0;" edge="1" parent="1" source="se57fAL17HWaH3ht4lCD-1" target="se57fAL17HWaH3ht4lCD-25">
          <mxGeometry relative="1" as="geometry" />
        </mxCell>
        <mxCell id="se57fAL17HWaH3ht4lCD-1" value="Container&lt;div&gt;&lt;br&gt;&lt;div&gt;Backend&lt;div&gt;API Server&lt;/div&gt;&lt;/div&gt;&lt;/div&gt;" style="whiteSpace=wrap;html=1;aspect=fixed;" vertex="1" parent="1">
          <mxGeometry x="350" y="100" width="80" height="80" as="geometry" />
        </mxCell>
        <mxCell id="se57fAL17HWaH3ht4lCD-10" style="edgeStyle=orthogonalEdgeStyle;rounded=0;orthogonalLoop=1;jettySize=auto;html=1;exitX=1;exitY=0.5;exitDx=0;exitDy=0;" edge="1" parent="1" source="se57fAL17HWaH3ht4lCD-2" target="se57fAL17HWaH3ht4lCD-1">
          <mxGeometry relative="1" as="geometry" />
        </mxCell>
        <mxCell id="se57fAL17HWaH3ht4lCD-2" value="&lt;div&gt;Container&lt;/div&gt;&lt;div&gt;&lt;br&gt;&lt;/div&gt;Frontend&lt;div&gt;Website&lt;/div&gt;" style="whiteSpace=wrap;html=1;aspect=fixed;" vertex="1" parent="1">
          <mxGeometry x="210" y="100" width="80" height="80" as="geometry" />
        </mxCell>
        <mxCell id="se57fAL17HWaH3ht4lCD-4" value="Container&lt;div&gt;&lt;br&gt;&lt;/div&gt;&lt;div&gt;MySQL DB&lt;/div&gt;" style="whiteSpace=wrap;html=1;aspect=fixed;" vertex="1" parent="1">
          <mxGeometry x="350" y="230" width="80" height="80" as="geometry" />
        </mxCell>
        <mxCell id="se57fAL17HWaH3ht4lCD-5" value="&lt;font style=&quot;font-size: 18px;&quot;&gt;Docker&lt;/font&gt;" style="text;html=1;align=center;verticalAlign=middle;resizable=0;points=[];autosize=1;strokeColor=none;fillColor=none;" vertex="1" parent="1">
          <mxGeometry x="170" y="40" width="80" height="40" as="geometry" />
        </mxCell>
        <mxCell id="se57fAL17HWaH3ht4lCD-11" value="" style="edgeStyle=orthogonalEdgeStyle;rounded=0;orthogonalLoop=1;jettySize=auto;html=1;" edge="1" parent="1" target="se57fAL17HWaH3ht4lCD-9">
          <mxGeometry relative="1" as="geometry">
            <mxPoint x="-100" y="140" as="sourcePoint" />
          </mxGeometry>
        </mxCell>
        <mxCell id="se57fAL17HWaH3ht4lCD-12" style="edgeStyle=orthogonalEdgeStyle;rounded=0;orthogonalLoop=1;jettySize=auto;html=1;exitX=1;exitY=0.5;exitDx=0;exitDy=0;" edge="1" parent="1" source="se57fAL17HWaH3ht4lCD-9" target="se57fAL17HWaH3ht4lCD-2">
          <mxGeometry relative="1" as="geometry" />
        </mxCell>
        <mxCell id="se57fAL17HWaH3ht4lCD-9" value="&lt;div&gt;Reverse&lt;/div&gt;Proxy Server" style="whiteSpace=wrap;html=1;aspect=fixed;" vertex="1" parent="1">
          <mxGeometry x="-20" y="100" width="80" height="80" as="geometry" />
        </mxCell>
        <mxCell id="se57fAL17HWaH3ht4lCD-19" value="Client" style="shape=umlActor;verticalLabelPosition=bottom;verticalAlign=top;html=1;outlineConnect=0;" vertex="1" parent="1">
          <mxGeometry x="-140" y="110" width="30" height="60" as="geometry" />
        </mxCell>
        <mxCell id="se57fAL17HWaH3ht4lCD-25" value="NCU Portal&lt;div&gt;OAuth 2.0&lt;/div&gt;" style="whiteSpace=wrap;html=1;aspect=fixed;" vertex="1" parent="1">
          <mxGeometry x="520" y="100" width="80" height="80" as="geometry" />
        </mxCell>
      </root>
    </mxGraphModel>
  </diagram>
</mxfile>
